<?xml version="1.0" encoding="UTF-8" standalone="no"?>
<!-- Generator: Adobe Illustrator 24.1.0, SVG Export Plug-In . SVG Version: 6.00 Build 0)  -->

<svg
   version="1.1"
   id="Layer_1"
   x="0px"
   y="0px"
   viewBox="0 0 1024 1024"
   style="enable-background:new 0 0 1024 1024;"
   xml:space="preserve"
   sodipodi:docname="equality_circle.svg"
   inkscape:version="1.1 (c68e22c387, 2021-05-23)"
   xmlns:inkscape="http://www.inkscape.org/namespaces/inkscape"
   xmlns:sodipodi="http://sodipodi.sourceforge.net/DTD/sodipodi-0.dtd"
   xmlns:xlink="http://www.w3.org/1999/xlink"
   xmlns="http://www.w3.org/2000/svg"
   xmlns:svg="http://www.w3.org/2000/svg"><defs
   id="defs87" /><sodipodi:namedview
   id="namedview85"
   pagecolor="#ffffff"
   bordercolor="#666666"
   borderopacity="1.0"
   inkscape:pageshadow="2"
   inkscape:pageopacity="0.0"
   inkscape:pagecheckerboard="0"
   showgrid="false"
   inkscape:zoom="0.71875"
   inkscape:cx="511.30435"
   inkscape:cy="512"
   inkscape:window-width="1920"
   inkscape:window-height="974"
   inkscape:window-x="-11"
   inkscape:window-y="-11"
   inkscape:window-maximized="1"
   inkscape:current-layer="Layer_1" />
<style
   type="text/css"
   id="style49">
	.st0{opacity:0.3;enable-background:new    ;}
	.st1{opacity:0.981;fill:#FFFFFF;enable-background:new    ;}
	.st2{fill-rule:evenodd;clip-rule:evenodd;fill:#3AAC59;}
	.st3{fill:none;stroke:#3AAC59;stroke-miterlimit:8;}
	.st4{clip-path:url(#SVGID_2_);fill-rule:evenodd;clip-rule:evenodd;fill:#3AAC59;}
	.st5{clip-path:url(#SVGID_2_);fill:none;stroke:#3AAC59;stroke-miterlimit:8;}
	.st6{clip-path:url(#SVGID_2_);}
	.st7{clip-path:url(#SVGID_4_);fill-rule:evenodd;clip-rule:evenodd;fill:#3AAC59;}
	.st8{clip-path:url(#SVGID_4_);fill:none;stroke:#3AAC59;stroke-miterlimit:8;}
</style>
<g
   id="g1584"
   transform="matrix(75.333122, 0, 0, 75.333122, -3762.762451, -7750.848633)">
	<circle
   id="path940-2"
   class="st0"
   cx="56.8"
   cy="109.7"
   r="5.9" />
	<circle
   id="path940"
   class="st1"
   cx="56.6"
   cy="109.5"
   r="5.9" />
</g>
<g
   id="g82"
   transform="translate(20)">
	<path
   class="st2"
   d="m 167.2,550.6 h 57.6 l 1.1,3.9 c 12.7,40.8 42.9,73.8 81.9,90.3 l 9.1,3.3 v 0 l 4.2,1.5 c 13.6,4.2 28,6.5 43,6.5 30,0 57.8,-9.1 80.9,-24.7 l 2,-1.5 0.1,0.1 c 7.2,10.7 15.4,20.6 24.5,29.7 l 13,11.9 -8.3,6.2 c -16,10.8 -33.7,19.4 -52.5,25.3 l -12,3.2 v 0 l -2.4,0.6 c -14.6,3.4 -29.7,5.1 -45.3,5.1 -97,0 -177.9,-68.8 -196.6,-160.2 z M 457,340.3 l 12.5,0.6 8.7,5.5 c 4.6,3.2 9.1,6.6 13.5,10.2 l 1.2,1.1 -7.1,5.3 c -9.9,8.2 -19,17.3 -27.2,27.2 l -5.5,7.4 -8.2,-6.1 C 421.8,375.9 394,366.8 364,366.8 l -2.5,0.1 6.9,-4.2 c 26.3,-14.3 56.5,-22.4 88.6,-22.4 z m -92.9,-29.5 c 36.4,0 70.5,9.7 99.9,26.6 l 5.6,3.5 -12.5,-0.6 c -32.1,0 -62.3,8.1 -88.6,22.4 l -6.9,4.2 -12.2,0.6 c -59.3,6 -108,47.8 -124.1,103.5 l -0.3,1.4 h 116.1 l -19.6,78.2 H 225 167.4 l -1.5,-8.5 c -1.5,-10 -2.3,-20.2 -2.3,-30.6 0,-10.4 0.8,-20.6 2.3,-30.6 l 1.5,-8.5 v 0 l 0.2,-1.3 c 18.6,-91.5 99.5,-160.3 196.5,-160.3 z"
   id="path54" />
	<path
   class="st3"
   d="m 167.2,550.6 h 57.6 l 1.1,3.9 c 12.7,40.8 42.9,73.8 81.9,90.3 l 9.1,3.3 v 0 l 4.2,1.5 c 13.6,4.2 28,6.5 43,6.5 30,0 57.8,-9.1 80.9,-24.7 l 2,-1.5 0.1,0.1 c 7.2,10.7 15.4,20.6 24.5,29.7 l 13,11.9 -8.3,6.2 c -16,10.8 -33.7,19.4 -52.5,25.3 l -12,3.2 v 0 l -2.4,0.6 c -14.6,3.4 -29.7,5.1 -45.3,5.1 -97,0 -177.9,-68.8 -196.6,-160.2 z M 457,340.3 l 12.5,0.6 8.7,5.5 c 4.6,3.2 9.1,6.6 13.5,10.2 l 1.2,1.1 -7.1,5.3 c -9.9,8.2 -19,17.3 -27.2,27.2 l -5.5,7.4 -8.2,-6.1 C 421.8,375.9 394,366.8 364,366.8 l -2.5,0.1 6.9,-4.2 c 26.3,-14.3 56.5,-22.4 88.6,-22.4 z m -92.9,-29.5 c 36.4,0 70.5,9.7 99.9,26.6 l 5.6,3.5 -12.5,-0.6 c -32.1,0 -62.3,8.1 -88.6,22.4 l -6.9,4.2 -12.2,0.6 c -59.3,6 -108,47.8 -124.1,103.5 l -0.3,1.4 h 116.1 l -19.6,78.2 H 225 167.4 l -1.5,-8.5 c -1.5,-10 -2.3,-20.2 -2.3,-30.6 0,-10.4 0.8,-20.6 2.3,-30.6 l 1.5,-8.5 v 0 l 0.2,-1.3 c 18.6,-91.5 99.5,-160.3 196.5,-160.3 z"
   id="path56" />
	<g
   id="g80">
		<defs
   id="defs59">
			<polygon
   id="SVGID_1_"
   points="163,712.6 863.5,712.6 863.5,310.4 163,310.4 " />
		</defs>
		<clipPath
   id="SVGID_2_">
			<use
   xlink:href="#SVGID_1_"
   style="overflow:visible"
   id="use61"
   x="0"
   y="0"
   width="100%"
   height="100%" />
		</clipPath>
		<path
   class="st4"
   d="m 604.8,329.9 c 103.6,0 187.6,84 187.6,187.6 0,12.9 -1.3,25.6 -3.8,37.8 l -0.4,1.5 -2.1,-3.3 C 773.4,535.4 755.2,523.1 735.7,519 l -1.6,-0.3 0.1,-1.3 C 734.2,446 676.3,388 604.8,388 c -71.5,0 -129.4,58 -129.4,129.5 0,71.5 57.9,129.4 129.4,129.4 17.9,0 34.9,-3.6 50.4,-10.2 l 5.2,-2.5 0.3,0.6 c 8.5,18.2 21.9,32.5 37.6,41.1 l 3.7,1.8 -7.7,4.7 c -26.6,14.4 -57,22.6 -89.4,22.6 -103.6,0 -187.6,-84 -187.6,-187.6 0,-103.6 83.9,-187.5 187.5,-187.5 z"
   clip-path="url(#SVGID_2_)"
   id="path64" />
		<path
   class="st5"
   d="m 604.8,329.9 c 103.6,0 187.6,84 187.6,187.6 0,12.9 -1.3,25.6 -3.8,37.8 l -0.4,1.5 -2.1,-3.3 C 773.4,535.4 755.2,523.1 735.7,519 l -1.6,-0.3 0.1,-1.3 C 734.2,446 676.3,388 604.8,388 c -71.5,0 -129.4,58 -129.4,129.5 0,71.5 57.9,129.4 129.4,129.4 17.9,0 34.9,-3.6 50.4,-10.2 l 5.2,-2.5 0.3,0.6 c 8.5,18.2 21.9,32.5 37.6,41.1 l 3.7,1.8 -7.7,4.7 c -26.6,14.4 -57,22.6 -89.4,22.6 -103.6,0 -187.6,-84 -187.6,-187.6 0,-103.6 83.9,-187.5 187.5,-187.5 z"
   clip-path="url(#SVGID_2_)"
   id="path66" />
		<g
   class="st6"
   clip-path="url(#SVGID_2_)"
   id="g78">
			<defs
   id="defs69">
				<polygon
   id="SVGID_3_"
   points="163,712.6 863.5,712.6 863.5,310.4 163,310.4 " />
			</defs>
			<clipPath
   id="SVGID_4_">
				<use
   xlink:href="#SVGID_3_"
   style="overflow:visible"
   id="use71"
   x="0"
   y="0"
   width="100%"
   height="100%" />
			</clipPath>
			<path
   class="st7"
   d="m 861.9,649.6 c -38.3,-3.7 -71.7,2 -100.1,17.1 -33.4,17.7 -76.9,1.2 -97.1,-36.9 -17.1,-32.3 -42.5,-60.3 -76.1,-84 38.3,3.7 71.7,-2 100.1,-17.1 33.4,-17.7 76.9,-1.2 97.1,36.9 17.2,32.4 42.6,60.3 76.1,84 z"
   clip-path="url(#SVGID_4_)"
   id="path74" />
			<path
   class="st8"
   d="m 861.9,649.6 c -38.3,-3.7 -71.7,2 -100.1,17.1 -33.4,17.7 -76.9,1.2 -97.1,-36.9 -17.1,-32.3 -42.5,-60.3 -76.1,-84 38.3,3.7 71.7,-2 100.1,-17.1 33.4,-17.7 76.9,-1.2 97.1,36.9 17.2,32.4 42.6,60.3 76.1,84 z"
   clip-path="url(#SVGID_4_)"
   id="path76" />
		</g>
	</g>
</g>
</svg>
