<?xml version="1.0" encoding="utf-8"?>
<svg viewBox="0 0 150 58" xmlns="http://www.w3.org/2000/svg">
  <defs>
    <filter id="point-light-filter-0" primitiveUnits="objectBoundingBox" x="-500%" y="-500%" width="1000%" height="1000%">
      <feSpecularLighting result="specular-lighting" lighting-color="#ffffff" specularConstant="1" specularExponent="70">
        <fePointLight x="0.5" y="0.5" z="0.5"/>
      </feSpecularLighting>
      <feDiffuseLighting result="diffuse-lighting" lighting-color="#ffffff" diffuseConstant="0.2">
        <fePointLight x="0.5" y="0.5" z="0.5"/>
      </feDiffuseLighting>
      <feMerge result="lighting">
        <feMergeNode in="diffuse-lighting"/>
        <feMergeNode in="specular-lighting"/>
      </feMerge>
      <feComposite in="SourceGraphic" in2="lighting" operator="arithmetic" k1="1" k2="0" k3="0" k4="0"/>
    </filter>
  </defs>
  <path d="M 16.193 53.16 L 30.123 27.71 L 17.813 5.04 L 25.713 5.04 L 34.093 21.68 L 42.183 5.04 L 50.093 5.04 L 37.683 27.83 L 48.503 47.73 L 55.393 47.73 C 55.306 48.47 55.1 49.173 54.773 49.84 C 54.446 50.507 54.033 51.083 53.533 51.57 C 53.033 52.057 52.466 52.443 51.833 52.73 C 51.2 53.017 50.533 53.16 49.833 53.16 L 43.583 53.16 L 33.613 33.93 L 24.313 53.16 L 16.193 53.16 ZM 61.324 45.16 L 61.324 35.26 L 54.184 35.26 C 54.244 34.56 54.424 33.9 54.724 33.28 C 55.017 32.653 55.404 32.113 55.884 31.66 C 56.357 31.2 56.897 30.833 57.504 30.56 C 58.104 30.287 58.744 30.15 59.424 30.15 L 61.324 30.15 L 61.324 13.11 C 61.324 11.983 61.477 10.93 61.784 9.95 C 62.091 8.963 62.514 8.107 63.054 7.38 C 63.594 6.647 64.227 6.073 64.954 5.66 C 65.687 5.247 66.467 5.04 67.294 5.04 L 87.224 5.04 L 87.224 10.41 L 68.944 10.41 L 68.944 30.15 L 81.514 30.15 L 81.514 35.26 L 68.944 35.26 L 68.944 47.73 L 90.044 47.73 C 89.964 48.47 89.757 49.173 89.424 49.84 C 89.097 50.507 88.687 51.083 88.194 51.57 C 87.694 52.057 87.127 52.443 86.494 52.73 C 85.861 53.017 85.194 53.16 84.494 53.16 L 67.354 53.16 C 66.507 53.16 65.721 52.95 64.994 52.53 C 64.261 52.103 63.624 51.53 63.084 50.81 C 62.544 50.09 62.117 49.243 61.804 48.27 C 61.484 47.297 61.324 46.26 61.324 45.16 ZM 100.171 53.16 C 100.258 52.42 100.465 51.723 100.791 51.07 C 101.118 50.41 101.535 49.833 102.041 49.34 C 102.548 48.84 103.115 48.447 103.741 48.16 C 104.368 47.873 105.028 47.73 105.721 47.73 L 120.201 47.73 L 120.201 10.41 L 105.181 10.41 L 105.181 38.56 L 103.601 38.56 C 102.775 38.56 101.998 38.35 101.271 37.93 C 100.538 37.503 99.898 36.927 99.351 36.2 C 98.798 35.467 98.361 34.61 98.041 33.63 C 97.728 32.643 97.571 31.59 97.571 30.47 L 97.571 13.11 C 97.571 11.983 97.728 10.93 98.041 9.95 C 98.361 8.963 98.798 8.107 99.351 7.38 C 99.898 6.647 100.531 6.073 101.251 5.66 C 101.971 5.247 102.745 5.04 103.571 5.04 L 121.721 5.04 C 122.548 5.04 123.331 5.247 124.071 5.66 C 124.811 6.073 125.458 6.647 126.011 7.38 C 126.558 8.107 126.991 8.963 127.311 9.95 C 127.625 10.93 127.781 11.983 127.781 13.11 L 127.781 40.18 C 127.781 41.047 127.678 41.877 127.471 42.67 C 127.258 43.463 126.961 44.183 126.581 44.83 C 126.201 45.477 125.745 46.047 125.211 46.54 C 124.685 47.04 124.105 47.437 123.471 47.73 L 134.801 47.73 C 134.715 48.47 134.508 49.17 134.181 49.83 C 133.855 50.483 133.441 51.06 132.941 51.56 C 132.441 52.053 131.875 52.443 131.241 52.73 C 130.608 53.017 129.941 53.16 129.241 53.16 L 100.171 53.16 Z" transform="matrix(1, 0, 0, 1, 0, 0)" style="fill: rgb(84, 234, 84); paint-order: fill; stroke: rgb(117, 255, 24); white-space: pre; filter: url(#point-light-filter-0);"/>
</svg>