<?xml version="1.0" encoding="utf-8"?>
<svg viewBox="0 0 1024 1024" xmlns="http://www.w3.org/2000/svg">
  <defs>
    <filter style="color-interpolation-filters:sRGB" id="filter1573" x="-0.073200002" width="1.1464" y="-0.073200002" height="1.1464">
      <feGaussianBlur stdDeviation="0.379055" id="feGaussianBlur1575"/>
    </filter>
    <filter id="point-light-filter-0" primitiveUnits="objectBoundingBox" x="-500%" y="-500%" width="1000%" height="1000%">
      <feSpecularLighting result="specular-lighting" lighting-color="#ffffff" specularConstant="1" specularExponent="70">
        <fePointLight x="0.5" y="0.5" z="0.5"/>
      </feSpecularLighting>
      <feDiffuseLighting result="diffuse-lighting" lighting-color="#ffffff" diffuseConstant="0.2">
        <fePointLight x="0.5" y="0.5" z="0.5"/>
      </feDiffuseLighting>
      <feMerge result="lighting">
        <feMergeNode in="diffuse-lighting"/>
        <feMergeNode in="specular-lighting"/>
      </feMerge>
      <feComposite in="SourceGraphic" in2="lighting" operator="arithmetic" k1="1" k2="0" k3="0" k4="0"/>
    </filter>
  </defs>
  <g id="g1584" transform="matrix(75.333122, 0, 0, 75.333122, -3762.762451, -7750.848633)">
    <circle style="opacity:0.3;fill:#000000;fill-opacity:1;stroke:none;stroke-width:0.75;stroke-miterlimit:4;stroke-dasharray:none;stroke-opacity:1;filter:url(#filter1573)" id="path940-2" cx="56.93552" cy="109.78479" r="6.2140164" transform="matrix(0.94947044,0,0,0.94947044,2.7027709,5.4400389)"/>
    <circle style="opacity: 0.981; fill: rgb(255, 255, 255); fill-opacity: 1; stroke: none; stroke-width: 0.75; stroke-miterlimit: 4; stroke-dasharray: none; stroke-opacity: 1;" id="path940" cx="56.794773" cy="109.64406" r="6.2140164" transform="matrix(0.94947044,0,0,0.94947044,2.7027709,5.4400389)"/>
    <path d="M 25.273 42.82 L 25.273 30.03 L 16.053 30.03 C 16.133 29.123 16.363 28.267 16.743 27.46 C 17.13 26.653 17.63 25.957 18.243 25.37 C 18.856 24.783 19.553 24.313 20.333 23.96 C 21.113 23.6 21.94 23.42 22.813 23.42 L 25.273 23.42 L 25.273 1.4 C 25.273 -0.053 25.473 -1.413 25.873 -2.68 C 26.266 -3.953 26.813 -5.063 27.513 -6.01 C 28.213 -6.95 29.033 -7.687 29.973 -8.22 C 30.92 -8.753 31.926 -9.02 32.993 -9.02 L 58.743 -9.02 L 58.743 -2.09 L 35.123 -2.09 L 35.123 23.42 L 51.363 23.42 L 51.363 30.03 L 35.123 30.03 L 35.123 46.15 L 62.393 46.15 C 62.286 47.103 62.02 48.01 61.593 48.87 C 61.173 49.737 60.64 50.483 59.993 51.11 C 59.353 51.737 58.623 52.237 57.803 52.61 C 56.983 52.977 56.123 53.16 55.223 53.16 L 33.073 53.16 C 31.98 53.16 30.96 52.887 30.013 52.34 C 29.073 51.793 28.253 51.053 27.553 50.12 C 26.853 49.193 26.3 48.1 25.893 46.84 C 25.48 45.587 25.273 44.247 25.273 42.82 ZM 75.485 53.16 C 75.591 52.2 75.858 51.297 76.285 50.45 C 76.705 49.603 77.245 48.86 77.905 48.22 C 78.558 47.573 79.288 47.067 80.095 46.7 C 80.901 46.333 81.755 46.15 82.655 46.15 L 101.365 46.15 L 101.365 -2.09 L 81.965 -2.09 L 81.965 34.29 L 79.915 34.29 C 78.848 34.29 77.841 34.017 76.895 33.47 C 75.955 32.923 75.128 32.18 74.415 31.24 C 73.701 30.293 73.141 29.183 72.735 27.91 C 72.321 26.643 72.115 25.283 72.115 23.83 L 72.115 1.4 C 72.115 -0.053 72.321 -1.413 72.735 -2.68 C 73.141 -3.953 73.701 -5.063 74.415 -6.01 C 75.128 -6.95 75.948 -7.687 76.875 -8.22 C 77.808 -8.753 78.808 -9.02 79.875 -9.02 L 103.335 -9.02 C 104.401 -9.02 105.411 -8.753 106.365 -8.22 C 107.325 -7.687 108.158 -6.95 108.865 -6.01 C 109.578 -5.063 110.141 -3.953 110.555 -2.68 C 110.961 -1.413 111.165 -0.053 111.165 1.4 L 111.165 36.38 C 111.165 37.507 111.028 38.58 110.755 39.6 C 110.481 40.627 110.098 41.557 109.605 42.39 C 109.111 43.223 108.525 43.963 107.845 44.61 C 107.158 45.25 106.405 45.763 105.585 46.15 L 120.235 46.15 C 120.121 47.103 119.855 48.003 119.435 48.85 C 119.008 49.697 118.475 50.443 117.835 51.09 C 117.188 51.73 116.455 52.237 115.635 52.61 C 114.815 52.977 113.955 53.16 113.055 53.16 L 75.485 53.16 Z" transform="matrix(0.07677800208330154, 0, 0, 0.09237099438905716, 51.281490325927734, 107.11888885498047)" style="fill: rgb(84, 234, 84); paint-order: fill; stroke: rgb(117, 255, 24); white-space: pre; filter: url(#point-light-filter-0);"/>
  </g>
</svg>