<?xml version="1.0" encoding="utf-8"?>
<!-- Generator: Adobe Illustrator 24.1.0, SVG Export Plug-In . SVG Version: 6.00 Build 0)  -->
<svg version="1.1" id="Layer_1" xmlns="http://www.w3.org/2000/svg" xmlns:xlink="http://www.w3.org/1999/xlink" x="0px" y="0px"
	 viewBox="0 0 150 58" style="enable-background:new 0 0 150 58;" xml:space="preserve">
<style type="text/css">
	.st0{display:none;fill:#3AAC59;}
	.st1{fill:#3AAC59;}
</style>
<path class="st0" d="M16.2,53.2l13.9-25.5L17.8,5h7.9l8.4,16.6L42.2,5h7.9L37.7,27.8l10.8,19.9h6.9c-0.1,0.7-0.3,1.4-0.6,2.1
	s-0.7,1.2-1.2,1.7s-1.1,0.9-1.7,1.2s-1.3,0.4-2,0.4h-6.3l-10-19.2l-9.3,19.2h-8.1V53.2z M61.3,45.2v-9.9h-7.1c0.1-0.7,0.2-1.4,0.5-2
	s0.7-1.2,1.2-1.6c0.5-0.5,1-0.8,1.6-1.1c0.6-0.3,1.2-0.4,1.9-0.4h1.9v-17c0-1.1,0.2-2.2,0.5-3.2s0.7-1.8,1.3-2.6
	c0.5-0.7,1.2-1.3,1.9-1.7C65.7,5.2,66.5,5,67.3,5h19.9v5.4H68.9v19.7h12.6v5.1H68.9v12.5H90c-0.1,0.7-0.3,1.4-0.6,2.1
	c-0.3,0.7-0.7,1.2-1.2,1.7s-1.1,0.9-1.7,1.2s-1.3,0.4-2,0.4H67.4c-0.8,0-1.6-0.2-2.4-0.6c-0.7-0.4-1.4-1-1.9-1.7s-1-1.6-1.3-2.5
	C61.5,47.3,61.3,46.3,61.3,45.2z M100.2,53.2c0.1-0.7,0.3-1.4,0.6-2.1c0.3-0.7,0.7-1.2,1.3-1.7c0.5-0.5,1.1-0.9,1.7-1.2
	s1.3-0.4,2-0.4h14.5V10.4h-15v28.2h-1.6c-0.8,0-1.6-0.2-2.3-0.6c-0.7-0.4-1.4-1-1.9-1.7c-0.6-0.7-1-1.6-1.3-2.6s-0.5-2-0.5-3.2V13.1
	c0-1.1,0.2-2.2,0.5-3.2s0.8-1.8,1.3-2.6c0.5-0.7,1.2-1.3,1.9-1.7c0.7-0.4,1.5-0.6,2.3-0.6h18.2c0.8,0,1.6,0.2,2.3,0.6
	c0.7,0.4,1.4,1,1.9,1.7s1,1.6,1.3,2.6s0.5,2,0.5,3.2v27.1c0,0.9-0.1,1.7-0.3,2.5c-0.2,0.8-0.5,1.5-0.9,2.2c-0.4,0.6-0.8,1.2-1.4,1.7
	c-0.5,0.5-1.1,0.9-1.7,1.2h11.3c-0.1,0.7-0.3,1.4-0.6,2.1c-0.3,0.7-0.7,1.2-1.2,1.7s-1.1,0.9-1.7,1.2c-0.6,0.3-1.3,0.4-2,0.4
	C129.4,53.2,100.2,53.2,100.2,53.2z"/>
<g>
	<path class="st1" d="M20.8,29.9H14c-1.7,0-3,1.4-3,3V35c0,1.7,1.4,3,3,3h9.2c1.7,0,3,1.4,3,3v0.2c0,1.7-1.4,3-3,3H5.7
		c-1.7,0-3-1.4-3-3v-28c0-1.7,1.4-3,3-3h17.5c1.7,0,3,1.4,3,3v0.3c0,1.7-1.4,3-3,3H14c-1.7,0-3,1.4-3,3v1.1c0,1.7,1.4,3,3,3h6.8
		c1.7,0,3,1.4,3,3l0,0C23.8,28.6,22.5,29.9,20.8,29.9z"/>
	<path class="st1" d="M24.5,28.4c0-3.5,0.8-6.3,2.3-8.3s3.7-3,6.4-3c1.7,0,3.2,0.5,4.4,1.6c0.5,0.4,1.3,0.2,1.4-0.5l0,0
		c0.1-0.4,0.4-0.7,0.9-0.7h4.4c0.5,0,0.9,0.4,0.9,0.9v29.1c0,0.5-0.4,0.9-0.9,0.9h-5.2c-0.5,0-0.9-0.4-0.9-0.9v-7.6
		c0-0.7-0.8-1.1-1.4-0.7c-1.1,0.7-2.3,1-3.7,1c-2.6,0-4.7-1-6.3-3.1C25.3,35.1,24.5,32.2,24.5,28.4z M31.5,28.8c0,4,1.2,6,3.5,6
		c1.5,0,2.6-0.5,3.2-1.6c0.1-0.1,0.1-0.3,0.1-0.4v-8.3c0-0.2,0-0.3-0.1-0.4c-0.6-1-1.6-1.6-3.1-1.6c-2.2,0-3.3,1.7-3.5,5.2
		L31.5,28.8z"/>
	<path class="st1" d="M62,41.8c-0.1-0.7-0.9-1.1-1.4-0.6c-1.5,1.3-3.3,1.9-5.5,1.9c-2.8,0-4.9-0.8-6.3-2.4s-2.1-3.9-2.1-7V18.2
		c0-0.5,0.4-0.9,0.9-0.9h6.1c0.5,0,0.9,0.4,0.9,0.9v15.6c0,2.2,1.1,3.3,3.2,3.3c1.7,0,2.9-0.6,3.7-1.7c0.1-0.1,0.1-0.3,0.1-0.5V18.2
		c0-0.5,0.4-0.9,0.9-0.9h6.2c0.5,0,0.9,0.4,0.9,0.9v23.6c0,0.5-0.4,0.9-0.9,0.9H63C62.4,42.7,62,42.3,62,41.8L62,41.8z"/>
	<path class="st1" d="M85.8,42.2C85.8,42.2,85.7,42.2,85.8,42.2c-0.3-0.7-1.1-0.9-1.6-0.5c-1.3,1-3,1.6-4.9,1.6
		c-2.4,0-4.4-0.7-6.1-2.2s-2.5-3.3-2.5-5.4c0-2.8,1-4.8,3-6.2s5-2.1,8.9-2.1H85v-1.3c0-2.3-1-3.5-3-3.5c-1.6,0-2.5,0.6-2.7,1.9
		c-0.1,0.5-0.5,0.9-1,0.9h-5.8c-0.6,0-1.1-0.6-1-1.2c0.3-1.9,1.3-3.5,3-4.8c2.1-1.5,4.7-2.3,8-2.3s5.8,0.8,7.7,2.4s2.8,3.7,2.9,6.5
		v11.2c0,2.3,0.4,4.1,1.1,5.3v0.4H87C86.3,42.9,85.9,42.6,85.8,42.2z M81.1,37.7c1,0,1.8-0.2,2.4-0.6c0.5-0.4,1-0.7,1.2-1.2
		c0.1-0.2,0.2-0.4,0.2-0.6v-2.7c0-0.6-0.5-1-1-1h-1.3c-2.8,0-4.1,1.2-4.1,3.7c0,0.7,0.2,1.3,0.7,1.7S80.4,37.7,81.1,37.7z"/>
	<path class="st1" d="M99.2,43.1L99.2,43.1c-2.2,0-4-1.8-4-4v-28c0-2.2,1.8-4,4-4l0,0c2.2,0,4,1.8,4,4v28.1
		C103.1,41.3,101.4,43.1,99.2,43.1z"/>
	<path class="st1" d="M105,11.5c0-1.1,0.4-2,1.2-2.8s1.9-1.1,3.2-1.1s2.4,0.4,3.2,1.1s1.2,1.6,1.2,2.8s-0.4,2-1.2,2.8
		s-1.9,1.1-3.2,1.1s-2.4-0.4-3.2-1.1S105,12.6,105,11.5z M109.4,43.4L109.4,43.4c-2.2,0-4-1.8-4-4V22c0-2.2,1.8-4,4-4l0,0
		c2.2,0,4,1.8,4,4v17.4C113.4,41.6,111.6,43.4,109.4,43.4z"/>
	<path class="st1" d="M124.9,11.9V15c0,0.9,0.7,1.6,1.6,1.6h0.9c0.9,0,1.6,0.7,1.6,1.6v2.3c0,0.9-0.7,1.6-1.6,1.6h-0.9
		c-0.9,0-1.6,0.7-1.6,1.6v10c0,1,0.2,1.6,0.5,2s1,0.6,2,0.6c0.1,0,0.2,0,0.3,0c0.9,0,1.6,0.7,1.6,1.6v2.7c0,0.8-0.5,1.4-1.3,1.6
		c-1,0.2-2.1,0.3-3.2,0.3c-2.7,0-4.7-0.6-6-1.9s-1.9-3.2-1.9-5.8v-11c0-0.9-0.7-1.6-1.6-1.6l0,0c-0.9,0-1.6-0.7-1.6-1.6v-2.3
		c0-0.9,0.7-1.6,1.6-1.6l0,0c0.9,0,1.6-0.7,1.6-1.6V12c0-0.9,0.7-1.6,1.6-1.6h4.7C124.2,10.3,124.9,11,124.9,11.9z"/>
	<path class="st1" d="M137.9,34.9l3.4-11.4h6.7l-8.2,23.6l-0.4,0.9c-1.2,2.6-3.2,3.9-6.2,3.9c-0.8,0-1.7-0.1-2.6-0.4V47h0.8
		c0.9,0,1.6-0.1,2-0.4c0.5-0.3,0.8-0.7,1-1.4L135,44l-7-20.4h6.7L137.9,34.9z"/>
</g>
</svg>
